<?xml version="1.0" encoding="UTF-8" standalone="no"?>
<!-- Created with Inkscape (http://www.inkscape.org/) -->

<svg
   width="33.866665mm"
   height="33.866665mm"
   viewBox="0 0 33.866665 33.866665"
   version="1.1"
   id="svg1"
   xml:space="preserve"
   xmlns="http://www.w3.org/2000/svg"
   xmlns:svg="http://www.w3.org/2000/svg"><defs
     id="defs1"><linearGradient
       id="swatch8"><stop
         style="stop-color:#ffffff;stop-opacity:1;"
         offset="0"
         id="stop8" /></linearGradient></defs><g
     id="layer1"
     transform="matrix(0.99904017,0,0,0.99954835,-120.10813,-197.77654)"><rect
       style="display:inline;fill:#000000;fill-opacity:1;stroke-width:0.26477;stroke-linecap:square"
       id="rect2"
       width="33.899204"
       height="33.881969"
       x="120.22353"
       y="197.86591" /><path
       style="opacity:1;mix-blend-mode:normal;fill:#ffffff;fill-opacity:1;fill-rule:nonzero;stroke:#ffffff;stroke-width:0.265545;stroke-dasharray:none;stroke-opacity:1"
       d="m 121.54771,201.43982 h 31.25083"
       id="path3" /><path
       style="mix-blend-mode:normal;fill:#ffffff;fill-opacity:1;fill-rule:nonzero;stroke:#ffffff;stroke-width:0.265545;stroke-dasharray:none;stroke-opacity:1"
       d="m 121.54771,207.79269 h 31.25083"
       id="path3-8" /><path
       style="fill:#ffffff;fill-opacity:1;fill-rule:nonzero;stroke:#ffffff;stroke-width:0.52954;stroke-dasharray:none;stroke-opacity:1"
       d="m 142.99955,197.86591 v 1.05881"
       id="path8" /><path
       style="fill:#ffffff;fill-opacity:1;fill-rule:nonzero;stroke:#ffffff;stroke-width:0.52954;stroke-dasharray:none;stroke-opacity:1"
       d="m 144.32374,197.86591 v 1.05881"
       id="path8-0" /><rect
       style="fill:none;fill-opacity:0;fill-rule:nonzero;stroke:#ffffff;stroke-width:0.267916;stroke-linecap:butt;stroke-linejoin:miter;stroke-miterlimit:2;stroke-dasharray:none;stroke-opacity:1"
       id="rect8"
       width="30.982912"
       height="16.408367"
       x="121.68167"
       y="211.49971" /><text
       xml:space="preserve"
       style="font-style:normal;font-variant:normal;font-weight:normal;font-stretch:normal;font-size:2.82422px;font-family:'Courier New';-inkscape-font-specification:'Courier New';letter-spacing:0.0661926px;word-spacing:0.0661926px;fill:#ffffff;fill-opacity:1;fill-rule:nonzero;stroke:#ffffff;stroke-width:0.262224;stroke-linecap:butt;stroke-linejoin:miter;stroke-miterlimit:2;stroke-dasharray:none;stroke-opacity:1"
       x="114.9175"
       y="216.09541"
       id="text8"
       transform="scale(1.0572254,0.9458721)"><tspan
         id="tspan8"
         style="font-style:normal;font-variant:normal;font-weight:normal;font-stretch:normal;font-size:2.82422px;font-family:'Courier New';-inkscape-font-specification:'Courier New';letter-spacing:0.0661926px;word-spacing:0.0661926px;fill:#ffffff;fill-opacity:1;stroke-width:0.262224"
         x="114.9175"
         y="216.09541">Cop Shoot Cop...</tspan></text><text
       xml:space="preserve"
       style="font-style:normal;font-variant:normal;font-weight:normal;font-stretch:normal;font-size:1.76513px;font-family:'Courier New';-inkscape-font-specification:'Courier New';letter-spacing:0px;word-spacing:0px;fill:#ffffff;fill-opacity:1;fill-rule:nonzero;stroke:#ffffff;stroke-width:0.105908;stroke-linecap:butt;stroke-linejoin:miter;stroke-miterlimit:2;stroke-dasharray:none;stroke-opacity:1"
       x="121.35046"
       y="206.67087"
       id="text9"
       transform="scale(1.0002543,0.99974576)"><tspan
         id="tspan9"
         style="font-style:normal;font-variant:normal;font-weight:normal;font-stretch:normal;font-size:1.76513px;font-family:'Courier New';-inkscape-font-specification:'Courier New';letter-spacing:0px;word-spacing:0px;fill:#ffffff;fill-opacity:1;stroke:#ffffff;stroke-width:0.105908;stroke-dasharray:none;stroke-opacity:1"
         x="121.35046"
         y="206.67087">kamnosta</tspan></text><text
       xml:space="preserve"
       style="font-style:normal;font-variant:normal;font-weight:normal;font-stretch:normal;font-size:1.76514px;font-family:'Courier New';-inkscape-font-specification:'Courier New';letter-spacing:-0.156214px;word-spacing:0px;fill:#ffffff;fill-opacity:1;fill-rule:nonzero;stroke:#ffffff;stroke-width:0.105908;stroke-linecap:butt;stroke-linejoin:miter;stroke-miterlimit:2;stroke-dasharray:none;stroke-opacity:1"
       x="130.68933"
       y="206.6756"
       id="text10"
       transform="scale(1.0002543,0.99974576)"><tspan
         id="tspan10"
         style="letter-spacing:-0.156214px;stroke-width:0.105908;stroke-dasharray:none"
         x="130.68933"
         y="206.6756">24.07.04</tspan></text><text
       xml:space="preserve"
       style="font-style:normal;font-variant:normal;font-weight:normal;font-stretch:normal;font-size:1.76514px;font-family:'Courier New';-inkscape-font-specification:'Courier New';letter-spacing:0px;word-spacing:0px;fill:#ffffff;fill-opacity:1;fill-rule:nonzero;stroke:#ffffff;stroke-width:0.105908;stroke-linecap:butt;stroke-linejoin:miter;stroke-miterlimit:2;stroke-dasharray:none;stroke-opacity:1"
       x="121.65612"
       y="229.98431"
       id="text11"
       transform="scale(1.0002543,0.99974576)"><tspan
         id="tspan11"
         style="letter-spacing:0px;stroke-width:0.105908"
         x="121.65612"
         y="229.98431">svg</tspan></text><g
       stroke-linecap="round"
       id="newmousevector"
       style="fill:none;fill-opacity:1;stroke:#fffffa;stroke-linecap:round;stroke-linejoin:round;stroke-opacity:1"
       transform="matrix(0.02622372,0,0,0.0262104,120.37106,198.14494)"><path
         d="m 583.38,872.68 c 6.07,-0.3 90.47,-0.48 120.21,-0.43 16.14,0.2 46.58368,0.31368 61.34368,0.68368 14.62,0.7 41.55632,-0.77427 53.42632,0.16573"
         fill="none"
         stroke="rgb(244, 158, 194)"
         stroke-width="10"
         stroke-opacity="1.00"
         stroke-linejoin="round"
         id="path12-5"
         style="fill:none;fill-opacity:1;stroke:#fffffa;stroke-linecap:butt;stroke-linejoin:round;stroke-opacity:1" /><path
         d="m 748.14,642.18 c -1.41,2.22 -2.59,7.35 -2.9,11.11 -0.41,5.39 0.88,18.9 2.43,26.31 1.41,6.62 5.49,19.78 8.07,26.21 5.45,13.13 16.77,34.66 24.8,47.17 5.34,8.11 10.95,15.81 16.3,22.23 9.28,10.86 21.6,22.46 22.66,23.45"
         fill="none"
         stroke="rgb(244, 158, 194)"
         stroke-width="10"
         stroke-opacity="1.00"
         stroke-linejoin="round"
         id="path13-63"
         style="fill:none;fill-opacity:1;stroke:#fffffa;stroke-linecap:round;stroke-linejoin:round;stroke-opacity:1" /><path
         d="m 822.4647,800.1053 c -0.2,9.77 2.3453,16.8947 3.5553,23.8547 1.17,6.59 4.96,20.59 6.41,25.23 2.1,6.38 7.56,21.5 9.62,26.59 3.63,8.59 9.43,20.97 12.66,27.39 6.18,11.7 21.37,36.52 29.64,48.23 6.88,9.37 24.24,30.69 35.73,43.44 5.58,6.03 16.78,17.52 22.4,22.98 7.34,6.94 14.39,12.97 19.74,16.59 3.3,2.22 6.45,4.02 8.75,5.11"
         fill="none"
         stroke="rgb(244, 158, 194)"
         stroke-width="10"
         stroke-opacity="1.00"
         stroke-linejoin="round"
         id="path14-4"
         style="fill:none;fill-opacity:1;stroke:#fffffa;stroke-linecap:round;stroke-linejoin:round;stroke-opacity:1" /><path
         d="m 973.22206,1040.351 c 5.31,-4.01 19.05794,-12.321 23.69794,-16.721 5.74,-5.6 18.73,-19 21.75,-22.47 4.59,-5.28 12.4443,-11.81 16.1643,-17.44"
         fill="none"
         stroke="rgb(244, 158, 194)"
         stroke-width="10"
         stroke-opacity="1.00"
         stroke-linejoin="round"
         id="path15"
         style="fill:none;fill-opacity:1;stroke:#fffffa;stroke-linecap:round;stroke-linejoin:round;stroke-opacity:1" /><path
         d="m 786.67,952.4 c 13.48,2.88 46.4,9.3 54.7,11.14 6.88,1.67 18.77,4.64 25.93,6.76 6.94,2.15 18.71,6.6 25.82,10.22 10.28,5.33 27.44,18.5 34.57,24.5"
         fill="none"
         stroke="rgb(244, 158, 194)"
         stroke-width="10"
         stroke-opacity="1.00"
         stroke-linejoin="round"
         id="path16-4"
         style="fill:none;fill-opacity:1;stroke:#fffffa;stroke-linecap:square;stroke-linejoin:round;stroke-opacity:1" /><path
         d="m 795.97,1043.62 c 7.27,-0.01 23.77,-0.15 28.9,-0.46 12.56,-0.96 42.31,-5.38 53.27,-8.02 6.76,-1.65 19.18,-5.51 25.86,-8.22 7.29,-3.02 18.31,-9.73 22.36,-12.34 0,0 9.85,-2.87 9.85,-2.87 0,0 -2.63,-0.43 -2.63,-0.43"
         fill="none"
         stroke="rgb(244, 158, 194)"
         stroke-width="10"
         stroke-opacity="1.00"
         stroke-linejoin="round"
         id="path17-5"
         style="fill:none;fill-opacity:1;stroke:#fffffa;stroke-linecap:square;stroke-linejoin:round;stroke-opacity:1" /><path
         d="m 747.76,640.36 c 2.31,-2.24 6.12,-5.79 8.01,-6.84 4.54,-2.48 15.72,-4.5 26.25,-5.5 6.55,-0.52 20.49,-0.43 28.29,0.21 7.13,0.59 22.76,3.28 30.61,5.41 6.68,1.82 19.96,7.06 26.6,10.47 5.29,2.73 15.44,9.15 21.29,13.49 6.02,4.54 16.29,13.94 20.85,18.76 4.13,4.39 11.68,13.99 15.55,20.11 2.92,4.65 8.94,17 11.4,22.93"
         fill="none"
         stroke="rgb(244, 158, 194)"
         stroke-width="10"
         stroke-opacity="1.00"
         stroke-linejoin="round"
         id="path19-6"
         style="fill:none;fill-opacity:1;stroke:#fffffa;stroke-linecap:round;stroke-linejoin:round;stroke-opacity:1" /><path
         d="m 933.43,720.22 c -0.37,0.08 -3.14,2.37 -5.14,3.99 -1.77,1.54 -5.81,5.94 -6.74,8.29 -0.26,0.68 -4.17,17.79 -7.67,25.31 -4.57,9.63 -9.43,23 -10.77,26.73 -1.02,2.81 -3.9,11.68 -3.5,12.56 0.7,1.35 2.19,2.59 3.6,2.81 2,0.28 10.81,0.44 12.63,0.29 5.92,-0.53 22.29,-5.97 26.68,-6.9 2.81,-0.57 8.84,0.58 11.08,2.02 2.22,1.49 6.68,6.43 9.25,10.19 3.69,5.46 7.69,15.9 12.2,22.81 6.23,9.33 10.35,16.37 14.4,21.01 7.64,8.68 12.09,14.66 13.8,20.15 1.61,5.37 2.38,16.99 1.94,27.92 -0.17,3.38 -0.54,11.08 -0.51,12.39 0.06,1.56 2.28,8.41 3.11,9.77 0.98,1.58 6.15,8.3 7.49,9.86 2.76,3.16 13.21,10.33 14.94,12.74 1.51,2.17 2.79,11.52 2.8,11.57 0.06,0.37 2.15,8.78 2.31,10.67 0.1,1.22 -0.04,15.44 -0.37,17.97 9.31,-2.35 16.49,-4.52 26.44,-8.26 13.61,-5.29 44.26,-16.99 52.54,-18.75"
         fill="none"
         stroke="rgb(244, 158, 194)"
         stroke-width="10"
         stroke-opacity="1.00"
         stroke-linejoin="round"
         id="path20-5"
         style="fill:none;fill-opacity:1;stroke:#fffffa;stroke-linecap:round;stroke-linejoin:round;stroke-opacity:1" /><path
         d="m 1030.58,992.51 c 7.19,5.27 34.16,23.78 49.08,33.16 7.91,4.71 20.12,11.19 25.2,13.27 6.42,2.6 17.63,4.85 24.7,4.97"
         fill="none"
         stroke="rgb(244, 158, 194)"
         stroke-width="10"
         stroke-opacity="1.00"
         stroke-linejoin="round"
         id="path21-1"
         style="fill:none;fill-opacity:1;stroke:#fffffa;stroke-linecap:square;stroke-linejoin:round;stroke-opacity:1" /><path
         d="m 964.7188,579.4032 c -2.44296,10.16198 -5.29161,17.81867 -7.3788,27.4068 -5.41,31.44 -12.89,73.79 -14.78,86.09"
         fill="none"
         stroke="rgb(244, 158, 194)"
         stroke-width="10"
         stroke-opacity="1.00"
         stroke-linejoin="round"
         id="path22-4"
         style="fill:none;fill-opacity:1;stroke:#fffffa;stroke-linecap:butt;stroke-linejoin:round;stroke-opacity:1" /><path
         d="m 950.19,732.34 c 8.2,-11.36 26.13,-32.89 35.73,-44.39 4.69,-5.96 13.47,-17.65 17.37,-23.11 8.96,-13.08 36.13,-60.59 38.77,-64.92"
         fill="none"
         stroke="rgb(244, 158, 194)"
         stroke-width="10"
         stroke-opacity="1.00"
         stroke-linejoin="round"
         id="path23-0"
         style="fill:none;fill-opacity:1;stroke:#fffffa;stroke-linecap:butt;stroke-linejoin:round;stroke-opacity:1" /><path
         d="m 956.63,773 c 6.28,-7.34 29.19,-28.25 39.71,-37.83 26.81,-24.33 81.42,-73.53 99.09,-88.61 11.1916,-9.44924 64.1649,-53.47751 65.14,-53.25"
         fill="none"
         stroke="rgb(244, 158, 194)"
         stroke-width="10"
         stroke-opacity="1.00"
         stroke-linejoin="round"
         id="path24-9"
         style="fill:none;fill-opacity:1;stroke:#fffffa;stroke-linecap:butt;stroke-linejoin:round;stroke-opacity:1" /><path
         d="m 1074.4193,663.89077 c 5.8,-2.91 31.9707,-14.94077 38.7707,-18.37077 13.85,-6.89 41.92,-20.75 56.14,-27.71 12.9683,-6.4152 49.646,-24.25656 60.6349,-34.19794"
         fill="none"
         stroke="rgb(244, 158, 194)"
         stroke-width="10"
         stroke-opacity="1.00"
         stroke-linejoin="round"
         id="path25-5"
         style="fill:none;fill-opacity:1;stroke:#fffffa;stroke-linecap:butt;stroke-linejoin:round;stroke-opacity:1" /><path
         d="m 993.83,787.6 c 24.98,-17.51 71.38,-48.46 100.88,-67.22 28.21,-17.57 89.23,-55.83 103.28,-65.78 6.3,-4.66 17.44,-13.18 21.21,-17.2 1.84,-1.97 10.6596,-8.03265 11.7096,-9.42265"
         fill="none"
         stroke="rgb(244, 158, 194)"
         stroke-width="10"
         stroke-opacity="1.00"
         stroke-linejoin="round"
         id="path26-9"
         style="fill:none;fill-opacity:1;stroke:#fffffa;stroke-linecap:butt;stroke-linejoin:round;stroke-opacity:1" /><path
         d="m 1176.2272,669.00573 c 8.9,-7.01 21.6849,-9.29838 28.1049,-12.35838 3.31,-1.56 22.2575,-7.93774 26.2775,-9.40774"
         fill="none"
         stroke="rgb(244, 158, 194)"
         stroke-width="10"
         stroke-opacity="1.00"
         stroke-linejoin="round"
         id="path27-1"
         style="fill:none;fill-opacity:1;stroke:#fffffa;stroke-linecap:butt;stroke-linejoin:round;stroke-opacity:1" /><path
         d="m 1016.11,792.98 c 9.73,-3.23 17.09,-5.46 25.8,-7.21 14.64,-2.66 42.35,-7.55 55.83,-9.6 l 129.89,-22.47"
         fill="none"
         stroke="rgb(244, 158, 194)"
         stroke-width="10"
         stroke-opacity="1.00"
         stroke-linejoin="round"
         id="path28-7"
         style="fill:none;fill-opacity:1;stroke:#fffffa;stroke-linecap:butt;stroke-linejoin:round;stroke-opacity:1" /><path
         d="m 1140.13,742.68 c 10.45,-3.35 21.75,-4.78 21.82,-4.82"
         fill="none"
         stroke="rgb(244, 158, 194)"
         stroke-width="10"
         stroke-opacity="1.00"
         stroke-linejoin="round"
         id="path29-5"
         style="fill:none;fill-opacity:1;stroke:#fffffa;stroke-linecap:butt;stroke-linejoin:round;stroke-opacity:1" /><path
         d="m 1121.75,791.6 c 14.12,-1.17 44.75,-1.36 59.91,-1.33 8.28,0.14 43.4522,0.36735 46.4922,0.29735"
         fill="none"
         stroke="rgb(244, 158, 194)"
         stroke-width="10"
         stroke-opacity="1.00"
         stroke-linejoin="round"
         id="path30-2"
         style="fill:none;fill-opacity:1;stroke:#fffffa;stroke-linecap:butt;stroke-linejoin:round;stroke-opacity:1" /><path
         d="m 1030.35,816.4 c 28.49,4.45 91.17,12.47 124.61,16.53 14.9,1.76 48.69,5.94 58.73,8.51 5.07,1.33 16.172,2.87 17.462,2.94"
         fill="none"
         stroke="rgb(244, 158, 194)"
         stroke-width="10"
         stroke-opacity="1.00"
         stroke-linejoin="round"
         id="path31-2"
         style="fill:none;fill-opacity:1;stroke:#fffffa;stroke-linecap:butt;stroke-linejoin:round;stroke-opacity:1" /><path
         d="m 1029.43,846.72 c 11.07,1.42 42.43,8.63 58.63,12.48 31.87,7.97 103.88,26.15 119.62,30.9 l 21.4484,5.54"
         fill="none"
         stroke="rgb(244, 158, 194)"
         stroke-width="10"
         stroke-opacity="1.00"
         stroke-linejoin="round"
         id="path32-6"
         style="fill:none;fill-opacity:1;stroke:#fffffa;stroke-linecap:butt;stroke-linejoin:round;stroke-opacity:1" /><path
         d="m 1038.62,876.34 c 14.73,8.63 80.22,45.46 107.74,61.9 25.25,15.85 67.58,43.99 83.34,53.17 -0.51,0.17 -3.36,-2.61 -4.6,-2.83 -0.27,-0.04 -0.72,-0.16 -1.37,-0.34"
         fill="none"
         stroke="rgb(244, 158, 194)"
         stroke-width="10"
         stroke-opacity="1.00"
         stroke-linejoin="round"
         id="path33-5"
         style="fill:none;fill-opacity:1;stroke:#fffffa;stroke-linecap:butt;stroke-linejoin:round;stroke-opacity:1" /><path
         d="m 1112.34,892.47 36.51,13.64"
         fill="none"
         stroke="rgb(244, 158, 194)"
         stroke-width="10"
         stroke-opacity="1.00"
         stroke-linejoin="round"
         id="path34-6"
         style="fill:none;fill-opacity:1;stroke:#fffffa;stroke-linecap:butt;stroke-linejoin:round;stroke-opacity:1" /><path
         d="m 1035.46,919.2 18.75,0.22 c 9.52,14.54 11.24,21.27 11.51,22.79"
         fill="none"
         stroke="rgb(244, 158, 194)"
         stroke-width="10"
         stroke-opacity="1.00"
         stroke-linejoin="round"
         id="path35-9"
         style="fill:none;fill-opacity:1;stroke:#fffffa;stroke-linecap:butt;stroke-linejoin:round;stroke-opacity:1" /><path
         d="m 990.39,813.23 17.45,11.3"
         fill="none"
         stroke="rgb(244, 158, 194)"
         stroke-width="10"
         stroke-opacity="1.00"
         stroke-linejoin="round"
         id="path36-6"
         style="fill:none;fill-opacity:1;stroke:#fffffa;stroke-linecap:butt;stroke-linejoin:round;stroke-opacity:1" /><path
         d="m 930.21,774.92 c 0.51,-0.53 9.73,-5.07 11.35,-6.04 1.2,-0.75 0.27,-9.23 0.14,-9.94"
         fill="none"
         stroke="rgb(244, 158, 194)"
         stroke-width="10"
         stroke-opacity="1.00"
         stroke-linejoin="round"
         id="path37-3"
         style="fill:none;fill-opacity:1;stroke:#fffffa;stroke-linecap:butt;stroke-linejoin:round;stroke-opacity:1" /><path
         d="m 1037.7,654.9 c 0,0 10.49,-1.24 10.49,-1.24 0,0 3.75,12.54 3.75,12.54"
         fill="none"
         stroke="rgb(244, 158, 194)"
         stroke-width="10"
         stroke-opacity="1.00"
         stroke-linejoin="round"
         id="path38-5"
         style="fill:none;fill-opacity:1;stroke:#fffffa;stroke-linecap:butt;stroke-linejoin:round;stroke-opacity:1" /><path
         d="m 1106.37,599.51 c 0,0 17.22,-19.43 17.22,-19.43 0.04,-0.04 -2.21,3.35 -3.33,4.34 -0.23,0.2 -0.81,0.69 -1.72,1.44"
         fill="none"
         stroke="rgb(244, 158, 194)"
         stroke-width="10"
         stroke-opacity="1.00"
         stroke-linejoin="round"
         id="path39-5"
         style="fill:none;fill-opacity:1;stroke:#fffffa;stroke-linecap:butt;stroke-linejoin:round;stroke-opacity:1" /><path
         d="m 988.09,630.3 c 0,0 -1.61,7.38 -1.61,7.38"
         fill="none"
         stroke="rgb(244, 158, 194)"
         stroke-width="10"
         stroke-opacity="1.00"
         stroke-linejoin="round"
         id="path41-4"
         style="fill:none;fill-opacity:1;stroke:#fffffa;stroke-linecap:butt;stroke-linejoin:round;stroke-opacity:1" /><path
         d="m 902.19,624.17 c 0.1,2.2 2,7.9 3.5,10.5 1.45,2.47 4.57,7.23 7.07,10.86 0,0 8.04,-1.65 8.04,-1.65"
         fill="none"
         stroke="rgb(244, 158, 194)"
         stroke-width="10"
         stroke-opacity="1.00"
         stroke-linejoin="round"
         id="path42-5"
         style="fill:none;fill-opacity:1;stroke:#fffffa;stroke-linecap:butt;stroke-linejoin:round;stroke-opacity:1" /><path
         d="m 893.01,818.47 c -0.04,14.91 -0.05,56.29 0.2,62.49 0.06,1.63 2.31,25.77 2.32,27.22 l 9.2,3.95"
         fill="none"
         stroke="rgb(244, 158, 194)"
         stroke-width="10"
         stroke-opacity="1.00"
         stroke-linejoin="round"
         id="path43-3"
         style="fill:none;fill-opacity:1;stroke:#fffffa;stroke-linecap:square;stroke-linejoin:round;stroke-opacity:1" /><path
         d="m 933.43,720.22 c -0.37,0.08 -3.14,2.37 -5.14,3.99 -1.77,1.54 -5.81,5.94 -6.74,8.29 -0.26,0.68 -4.17,17.79 -7.67,25.31 -4.57,9.63 -9.43,23 -10.77,26.73 -1.02,2.81 -3.9,11.68 -3.5,12.56 0.7,1.35 2.19,2.59 3.6,2.81 2,0.28 10.81,0.44 12.63,0.29 5.92,-0.53 22.29,-5.97 26.68,-6.9 2.81,-0.57 8.84,0.58 11.08,2.02 2.22,1.49 6.68,6.43 9.25,10.19 3.69,5.46 7.69,15.9 12.2,22.81 6.23,9.33 10.35,16.37 14.4,21.01 7.64,8.68 12.09,14.66 13.8,20.15 1.61,5.37 2.38,16.99 1.94,27.92 -0.17,3.38 -0.54,11.08 -0.51,12.39 0.06,1.56 2.28,8.41 3.11,9.77 0.98,1.58 6.15,8.3 7.49,9.86 2.76,3.16 13.21,10.33 14.94,12.74 1.51,2.17 2.79,11.52 2.8,11.57 0.06,0.37 2.15,8.78 2.31,10.67 0.1,1.22 -0.04,15.44 -0.37,17.97 9.31,-2.35 16.49,-4.52 26.44,-8.26 13.61,-5.29 44.26,-16.99 52.54,-18.75"
         fill="none"
         stroke="rgb(244, 158, 194)"
         stroke-width="10"
         stroke-opacity="1.00"
         stroke-linejoin="round"
         id="path48"
         style="fill:none;fill-opacity:1;stroke:#fffffa;stroke-width:9.99817;stroke-linecap:square;stroke-linejoin:round;stroke-dasharray:none;stroke-opacity:1" /></g><g
       id="g1"
       style="display:inline"><path
         d="m 372.22,722.76 c 0.34,-3.25 0.24,-18.01 0.83,-22.97 0.4,-3.2 1.88,-9.57 2.81,-12.24 1.15,-3.2 3.48,-7.44 6,-10.87 4.04,-5.44 13.37,-14.59 18.34,-18.35 5.19,-3.91 16.24,-10.8 24.45,-15.35 8.89,-4.6 19.44,-9.38 25.55,-11.54 7.49,-2.63 16.3,-3.69 24.72,-3.92 7.11,-0.05 21.7,-0.01 25.13,0.51 15.11,2.35 30.71118,8.2853 32.01118,8.9753"
         fill="none"
         stroke="rgb(244, 158, 194)"
         stroke-width="10"
         stroke-opacity="1.00"
         stroke-linejoin="round"
         id="path4-9"
         style="fill:none;fill-opacity:1;stroke:#fffffa;stroke-linecap:round;stroke-linejoin:round;stroke-opacity:1"
         transform="matrix(0.02622372,0,0,0.0262104,120.37106,198.14494)" /><path
         d="m 308.07969,721.2153 c 2.44,-0.94 16.00589,-5.0853 18.51589,-5.5453 3.32,-0.57 25.28134,-0.0437 28.28134,0.26632 12.25426,1.3374 18.02668,7.12121 18.79308,8.72368"
         fill="none"
         stroke="rgb(244, 158, 194)"
         stroke-width="10"
         stroke-opacity="1.00"
         stroke-linejoin="round"
         id="path3-3"
         style="fill:none;fill-opacity:1;stroke:#fffffa;stroke-linecap:round;stroke-linejoin:round;stroke-opacity:1"
         transform="matrix(0.02622372,0,0,0.0262104,120.37106,198.14494)" /><path
         d="m 376.95103,826.79059 c 0.004,12.22257 0.16543,14.58021 -0.52103,24.75941 -0.15,53.07 0.07,59.90257 0.09,60.72257"
         fill="none"
         stroke="rgb(244, 158, 194)"
         stroke-width="10"
         stroke-opacity="1.00"
         stroke-linejoin="round"
         id="path7-5"
         style="fill:none;fill-opacity:1;stroke:#fffffa;stroke-width:15.1487;stroke-linecap:square;stroke-linejoin:round;stroke-dasharray:none;stroke-opacity:1"
         transform="matrix(0.02622372,0,0,0.0262104,120.37106,198.14494)" /><path
         d="m 366.64,1012.79 c 5.88,2.01 38.71,11.94 53.2,16.12 7.14,1.92 19.85,4.95 24.91,5.99 6.58439,1.272 22.70056,2.7361 38.8,5.47"
         fill="none"
         stroke="rgb(244, 158, 194)"
         stroke-width="10"
         stroke-opacity="1.00"
         stroke-linejoin="round"
         id="path9-5"
         style="fill:none;fill-opacity:1;stroke:#fffffa;stroke-linecap:square;stroke-linejoin:round;stroke-opacity:1"
         transform="matrix(0.02622372,0,0,0.0262104,120.37106,198.14494)" /><path
         d="m 505.64,951.33 c -3.01,1.1 -41.09,13.16 -57.36,18.39 -12.94,4.54 -38.53,13.83 -51.96,19.14 -6.39,2.65 -21.61,9.38 -23.04,10.06"
         fill="none"
         stroke="rgb(244, 158, 194)"
         stroke-width="10"
         stroke-opacity="1.00"
         stroke-linejoin="round"
         id="path11-9"
         style="fill:none;fill-opacity:1;stroke:#fffffa;stroke-linecap:square;stroke-linejoin:round;stroke-opacity:1"
         transform="matrix(0.02622372,0,0,0.0262104,120.37106,198.14494)" /><path
         d="m 533.74,638.99 c 0.75,2.85 2.7,9.26 3.03,13.88 0.14,2.03 0.18,21.52 0.19,28.58 -0.09,6.31 -0.4,19.78 -1.74,25.21 -1.78,6.86 -4.95,15.33 -8.52,22.48 -3.44,6.84 -9.8,14.62 -16.86,21.95 -5.32,5.2 -18.68,19.42 -21.01,21.78 -4.76,4.82 -28.14,23.77 -31.49,26.21 l -0.85,0.75 c -0.3,0.33 -3.02111,38.23309 -3.19111,39.97309 -0.52933,2.81735 -2.40449,18.48251 -5.33889,27.26691 -6.10792,18.28464 -14.92,33.16 -25.23,52.04 -5.2,9.56 -24.79,40.39 -28.96,47.67 -4.35,7.68 -25,37.15 -29.26,42.68 -11.61,15.07 -24.38067,27.8296 -24.38067,27.8296"
         fill="none"
         stroke="rgb(244, 158, 194)"
         stroke-width="10"
         stroke-opacity="1.00"
         stroke-linejoin="round"
         id="path5-3"
         style="fill:none;fill-opacity:1;stroke:#fffffa;stroke-linecap:round;stroke-linejoin:round;stroke-opacity:1"
         transform="matrix(0.02622372,0,0,0.0262104,120.37106,198.14494)" /></g><g
       id="g2"
       style="display:inline"
       transform="matrix(-1,0,0,1,258.55995,-0.00839938)"><path
         d="m 372.22,722.76 c 0.34,-3.25 0.24,-18.01 0.83,-22.97 0.4,-3.2 1.88,-9.57 2.81,-12.24 1.15,-3.2 3.48,-7.44 6,-10.87 4.04,-5.44 13.37,-14.59 18.34,-18.35 5.19,-3.91 16.24,-10.8 24.45,-15.35 8.89,-4.6 19.44,-9.38 25.55,-11.54 7.49,-2.63 16.3,-3.69 24.72,-3.92 7.11,-0.05 21.7,-0.01 25.13,0.51 15.11,2.35 30.71118,8.2853 32.01118,8.9753"
         fill="none"
         stroke="rgb(244, 158, 194)"
         stroke-width="10"
         stroke-opacity="1.00"
         stroke-linejoin="round"
         id="path4-9-2"
         style="fill:none;fill-opacity:1;stroke:#fffffa;stroke-linecap:round;stroke-linejoin:round;stroke-opacity:1"
         transform="matrix(0.02622372,0,0,0.0262104,120.37106,198.14494)" /><path
         d="m 130.3322,219.8213 c 1e-4,0.32036 0.004,0.37631 -0.0137,0.64311 -0.004,1.39098 0.002,1.55837 0.002,1.57986"
         fill="none"
         stroke="rgb(244, 158, 194)"
         stroke-width="10"
         stroke-opacity="1.00"
         stroke-linejoin="round"
         id="path7-5-2"
         style="fill:none;fill-opacity:1;stroke:#fffffa;stroke-width:0.397154;stroke-linecap:square;stroke-linejoin:round;stroke-dasharray:none;stroke-opacity:1" /><path
         d="m 366.64,1012.79 c 5.88,2.01 38.71,11.94 53.2,16.12 7.14,1.92 19.85,4.95 24.91,5.99 6.58439,1.272 22.70056,2.7361 38.8,5.47"
         fill="none"
         stroke="rgb(244, 158, 194)"
         stroke-width="10"
         stroke-opacity="1.00"
         stroke-linejoin="round"
         id="path9-5-1"
         style="fill:none;fill-opacity:1;stroke:#fffffa;stroke-linecap:square;stroke-linejoin:round;stroke-opacity:1"
         transform="matrix(0.02622372,0,0,0.0262104,120.37106,198.14494)" /><path
         d="m 505.64,951.33 c -3.01,1.1 -41.09,13.16 -57.36,18.39 -12.94,4.54 -38.53,13.83 -51.96,19.14 -6.39,2.65 -21.61,9.38 -23.04,10.06"
         fill="none"
         stroke="rgb(244, 158, 194)"
         stroke-width="10"
         stroke-opacity="1.00"
         stroke-linejoin="round"
         id="path11-9-8"
         style="fill:none;fill-opacity:1;stroke:#fffffa;stroke-linecap:square;stroke-linejoin:round;stroke-opacity:1"
         transform="matrix(0.02622372,0,0,0.0262104,120.37106,198.14494)" /><path
         d="m 533.74,638.99 c 0.75,2.85 2.7,9.26 3.03,13.88 0.14,2.03 0.18,21.52 0.19,28.58 -0.09,6.31 -0.4,19.78 -1.74,25.21 -1.78,6.86 -4.95,15.33 -8.52,22.48 -3.44,6.84 -9.8,14.62 -16.86,21.95 -5.32,5.2 -18.68,19.42 -21.01,21.78 -4.76,4.82 -28.14,23.77 -31.49,26.21 l -0.85,0.75 c -0.3,0.33 -3.02111,38.23309 -3.19111,39.97309 -0.52933,2.81735 -2.40449,18.48251 -5.33889,27.26691 -6.10792,18.28464 -25.23,52.04 -25.23,52.04 -5.2,9.56 -24.79,40.39 -28.96,47.67 -4.35,7.68 -25,37.15 -29.26,42.68 -11.61,15.07 -24.60384,28.1644 -24.60384,28.1644"
         fill="none"
         stroke="rgb(244, 158, 194)"
         stroke-width="10"
         stroke-opacity="1.00"
         stroke-linejoin="round"
         id="path5-3-2"
         style="fill:none;fill-opacity:1;stroke:#fffffa;stroke-linecap:round;stroke-linejoin:round;stroke-opacity:1"
         transform="matrix(0.02622372,0,0,0.0262104,120.37106,198.14494)" /></g></g></svg>
